<svg width="435" height="385" viewBox="0 0 435 385" fill="none" xmlns="http://www.w3.org/2000/svg">
<path d="M94.6006 59.8418C107.063 69.1976 122.57 67.0429 132.533 58.3037L146.75 70.2334L155.716 77.7559L148.445 85.0273L139.743 93.7285L116.779 116.692C104.434 128.235 94.8381 142.683 89.0801 158.944C88.4772 160.647 87.9159 162.37 87.3984 164.111C84.5366 173.741 83 183.942 83 194.501C83.0001 211.298 86.8886 227.186 93.8145 241.315C94.6411 243.002 95.5111 244.664 96.4229 246.299C109.254 269.306 130.369 287.063 155.733 295.536C157.53 296.136 159.348 296.69 161.186 297.195C170.201 299.676 179.696 301.001 189.5 301.001C208.443 301.001 226.231 296.054 241.643 287.384L244.162 294.306L255.591 325.706C247.555 330.425 241.603 338.845 240.975 349.789L239.419 376.896C239.388 377.442 239.371 377.984 239.368 378.522C239.355 378.526 239.342 378.531 239.328 378.534C223.598 382.752 207.061 385.001 190 385.001C181.919 385.001 173.955 384.496 166.139 383.517L166.136 383.516L164.773 359.772C163.265 333.483 131.038 321.754 112.983 340.923L95.2656 359.734C73.4651 347.17 54.3926 330.403 39.1553 310.54L39.1543 310.539L54.6709 293.135C72.1934 273.478 57.6998 242.397 31.3789 243.186L6.36035 243.934C2.21106 228.322 8.50977e-05 211.919 0 195.001C0 186.19 0.599749 177.517 1.76074 169.024L24.5537 167.717C50.8434 166.208 62.5726 133.982 43.4033 115.928L25.7979 99.3467L25.7998 99.3447C38.2237 78.0642 54.6655 59.4153 74.0859 44.4414L94.6006 59.8418ZM342.868 62C393.751 62 435 103.249 435 154.132C435 180.692 423.761 204.628 405.779 221.441L319.284 307.937C319.753 310.025 320 312.196 320 314.426C320 330.718 306.792 343.926 290.5 343.926C288.271 343.926 286.099 343.679 284.011 343.21C271.664 340.438 262.244 329.925 261.114 317.034C261.039 316.175 261 315.305 261 314.426C261 300.226 271.032 288.37 284.396 285.559C286.305 285.157 288.282 284.94 290.308 284.927L290.5 284.926C292.903 284.926 295.24 285.213 297.477 285.756L337.144 246.089L384.418 198.815C384.643 198.605 384.868 198.392 385.09 198.178C385.469 197.812 385.843 197.442 386.213 197.067C397.211 185.92 404 170.609 404 153.712C404 119.617 376.361 91.9775 342.266 91.9775C325.368 91.9775 310.057 98.7659 298.909 109.765L298.75 109.922L298.726 109.897L250.809 157.813L227.967 180.656C228.641 183.132 229 185.737 229 188.426C229 198.024 224.417 206.551 217.319 211.938C212.369 215.696 206.195 217.926 199.5 217.926C185.726 217.926 174.157 208.486 170.909 195.723C170.315 193.389 170 190.944 170 188.426C170 172.133 183.208 158.926 199.5 158.926C202.018 158.926 204.463 159.241 206.797 159.835L277.889 88.7432L277.926 88.7812C294.582 72.2286 317.53 62 342.868 62ZM290.5 303.926C284.701 303.926 280 308.627 280 314.426V314.494L280.001 314.597L280.005 314.73L280.008 314.82C280.016 315.032 280.03 315.242 280.05 315.451L280.055 315.499C280.592 320.794 285.063 324.926 290.5 324.926C296.299 324.926 301 320.225 301 314.426C301 308.627 296.299 303.926 290.5 303.926ZM249.5 0C251.729 3.61425e-05 253.902 0.248081 255.989 0.716797C268.336 3.4887 277.756 14.001 278.886 26.8916C278.961 27.7509 279 28.6212 279 29.5C279 43.6996 268.968 55.5563 255.604 58.3682C253.695 58.7698 251.718 58.9861 249.692 58.999L249.5 59C247.097 59 244.76 58.7123 242.523 58.1699L202.856 97.8369L155.582 145.11C155.356 145.321 155.132 145.534 154.91 145.748C154.531 146.113 154.157 146.484 153.787 146.858C142.789 158.006 136 173.318 136 190.215C136 224.31 163.639 251.949 197.734 251.949C214.632 251.949 229.943 245.16 241.091 234.161L241.25 234.004L241.274 234.029L289.191 186.112L312.033 163.27C311.359 160.794 311 158.189 311 155.5C311 145.902 315.583 137.375 322.681 131.987C327.631 128.23 333.805 126 340.5 126C354.274 126 365.843 135.441 369.091 148.204C369.684 150.537 370 152.982 370 155.5C370 171.792 356.792 185 340.5 185C337.982 185 335.537 184.685 333.203 184.091L262.111 255.183L262.074 255.146C245.418 271.698 222.469 281.926 197.132 281.926C146.249 281.926 105 240.677 105 189.794C105 163.234 116.239 139.298 134.221 122.484L220.716 35.9893C220.247 33.9012 220 31.7294 220 29.5C220 13.2075 233.208 0 249.5 0ZM199.5 177.926C193.701 177.926 189 182.627 189 188.426C189 194.225 193.701 198.926 199.5 198.926C205.299 198.926 210 194.225 210 188.426C210 182.627 205.299 177.926 199.5 177.926ZM340.5 145C334.701 145 330 149.701 330 155.5C330 161.299 334.701 166 340.5 166C346.299 166 351 161.299 351 155.5C351 149.701 346.299 145 340.5 145ZM249.5 19C243.701 19 239 23.7009 239 29.5C239 35.2991 243.701 40 249.5 40C255.299 39.9997 260 35.2989 260 29.5V29.4326L259.999 29.3291L259.995 29.1953L259.992 29.1055C259.984 28.8936 259.97 28.6841 259.95 28.4756L259.945 28.4268C259.408 23.1322 254.936 19.0002 249.5 19Z" fill="url(#paint0_linear_52_311)"/>
<defs>
<linearGradient id="paint0_linear_52_311" x1="34" y1="40" x2="340" y2="350" gradientUnits="userSpaceOnUse">
<stop stop-color="#E2B64D"/>
<stop offset="1" stop-color="#CF9F2B"/>
</linearGradient>
</defs>
</svg>
